<?xml version="1.0" encoding="UTF-8" standalone="no"?>
<svg
   xmlns:dc="http://purl.org/dc/elements/1.1/"
   xmlns:cc="http://creativecommons.org/ns#"
   xmlns:rdf="http://www.w3.org/1999/02/22-rdf-syntax-ns#"
   xmlns:svg="http://www.w3.org/2000/svg"
   xmlns="http://www.w3.org/2000/svg"
   xmlns:sodipodi="http://sodipodi.sourceforge.net/DTD/sodipodi-0.dtd"
   xmlns:inkscape="http://www.inkscape.org/namespaces/inkscape"
   inkscape:export-ydpi="854.82001"
   inkscape:export-xdpi="854.82001"
   inkscape:export-filename="/Users/benjaminaskren/Development/Xamarin/AssetBuilder/Assets/Icon1024.png"
   inkscape:version="1.0 (4035a4f, 2020-05-01)"
   height="115"
   width="115"
   sodipodi:docname="Icon.svg"
   id="svg52"
   xml:space="preserve"
   viewBox="0 0 115 115"
   y="0px"
   x="0px"
   version="1.1"><metadata
     id="metadata58"><rdf:RDF><cc:Work
         rdf:about=""><dc:format>image/svg+xml</dc:format><dc:type
           rdf:resource="http://purl.org/dc/dcmitype/StillImage" /><dc:title></dc:title></cc:Work></rdf:RDF></metadata><defs
     id="defs56" /><sodipodi:namedview
     inkscape:pagecheckerboard="true"
     inkscape:current-layer="svg52"
     inkscape:window-maximized="0"
     inkscape:window-y="23"
     inkscape:window-x="0"
     inkscape:cy="27.253614"
     inkscape:cx="-60.347288"
     inkscape:zoom="6.4060024"
     showgrid="false"
     id="namedview54"
     inkscape:window-height="1922"
     inkscape:window-width="2887"
     inkscape:pageshadow="2"
     inkscape:pageopacity="0"
     guidetolerance="10"
     gridtolerance="10"
     objecttolerance="10"
     borderopacity="1"
     bordercolor="#666666"
     pagecolor="#ffffff" /><style
     id="style10"
     type="text/css">
	.st0{display:none;}
	.st1{display:inline;}
	.st2{fill:none;stroke:#B3B3B3;stroke-width:0.1;stroke-miterlimit:10;}
</style><g
     id="g36"
     class="st0"><g
       id="g34"
       class="st1"><rect
         id="rect12"
         height="60"
         width="60"
         class="st2"
         y="2"
         x="2" /><line
         id="line14"
         y2="62"
         x2="32"
         y1="2"
         x1="32"
         class="st2" /><line
         id="line16"
         y2="32"
         x2="2"
         y1="32"
         x1="62"
         class="st2" /><line
         id="line18"
         y2="62"
         x2="62"
         y1="2"
         x1="2"
         class="st2" /><rect
         id="rect20"
         height="44"
         width="44"
         class="st2"
         y="10"
         x="10" /><line
         id="line22"
         y2="62"
         x2="2"
         y1="2"
         x1="62"
         class="st2" /><line
         id="line24"
         y2="2"
         x2="32"
         y1="32"
         x1="2"
         class="st2" /><line
         id="line26"
         y2="32"
         x2="62"
         y1="2"
         x1="32"
         class="st2" /><line
         id="line28"
         y2="62"
         x2="32"
         y1="32"
         x1="62"
         class="st2" /><line
         id="line30"
         y2="32"
         x2="2"
         y1="62"
         x1="32"
         class="st2" /><circle
         id="circle32"
         r="21"
         cy="32"
         cx="32"
         class="st2" /></g></g><g
     transform="translate(196.40598,12.401297)"
     id="g976"><path
       id="path106"
       fill="#3498db"
       d="m -162.6719,-4.9012974 c -3.03533,0 -6.00653,1.7295062 -7.53444,4.35797101 L -193.97222,40.740578 c -1.50466,2.635188 -1.50466,6.080451 0,8.715639 l 23.76588,41.284208 c 1.52791,2.628468 4.49911,4.352168 7.53444,4.358278 h 47.53206 c 3.03533,0 6.00652,-1.72981 7.53443,-4.358278 l 23.765863,-41.284208 c 1.504701,-2.635188 1.504086,-6.080451 0,-8.715639 L -107.60541,-0.54332639 c -1.52791,-2.62877191 -4.4991,-4.35186161 -7.53443,-4.35797101 z"
       style="stroke-width:0.43902"
       sodipodi:nodetypes="scccccscccccs" /><path
       style="fill:#ffffff;stroke-width:1.45969"
       d="m -97.158935,58.089635 -3.211315,4.087124 c -1.02178,1.313718 -2.7734,2.043561 -4.37906,1.605655 -22.91708,-5.254873 -45.54223,-5.254873 -67.29156,0 -0.29194,0.145969 -0.72985,0.145969 -1.02178,0.145969 -1.16775,0 -2.3355,-0.437906 -3.21132,-1.459687 l -4.37906,-4.816967 -1.16775,1.16775 c -0.58387,0.583874 -0.58387,1.313718 -0.14596,1.897593 l 3.79518,4.670998 c 0.87581,1.021781 2.04356,1.751624 3.35728,2.043561 23.93887,5.254873 47.87773,5.254873 71.8166,0 1.31372,-0.291937 2.48146,-1.02178 3.357277,-2.043561 l 3.795186,-4.670998 c 0.437906,-0.583875 0.437906,-1.459687 -0.145969,-1.897593 z"
       id="path38" /><path
       style="fill:#ffffff;stroke-width:1.45969"
       d="m -128.98011,22.911181 -8.75812,2.379061 c -0.94494,0.256685 -1.6825,0.256685 -2.62744,0 l -8.75812,-2.379061 c -1.02178,-0.437906 -1.60565,-1.459687 -1.60565,-2.627436 V 8.6579818 c 0,-3.2113112 2.62743,-3.8387476 5.83874,-3.8387476 h 11.6775 c 3.21131,0 5.83875,0.6274364 5.83875,3.8387476 V 20.283745 c 0,1.02178 -0.58388,2.043561 -1.60566,2.627436 z"
       id="path40"
       sodipodi:nodetypes="csscssssssc" /><path
       style="fill:#ffffff;stroke-width:1.45969"
       d="m -107.81465,50.353295 c -0.43791,0.145968 -0.72984,0.583874 -0.72984,1.167749 l -3.55828,8.142881 c 1.89759,0.291938 6.33168,1.053147 8.08331,1.491053 0.58387,0.145968 1.16775,-0.145969 1.45968,-0.583875 l 4.379064,-5.838748 v -7.882309 l -1.313718,-0.583875 z"
       id="path42"
       sodipodi:nodetypes="cccsccccc" /><path
       style="fill:#ffffff;stroke-width:1.45969"
       d="m -168.09972,51.521044 c 0,-0.437906 -0.29194,-0.875812 -0.72984,-1.167749 l -9.05006,-4.52503 -2.04356,1.021781 v 7.444403 l 5.69278,6.276654 c 0.29193,0.437906 0.87581,0.583875 1.45968,0.437906 l 7.75819,-1.472596 z"
       id="path44"
       sodipodi:nodetypes="ccccccccc" /><path
       style="fill:#ffffff;stroke-width:1.45969"
       d="M -124.45508,8.8981867 V 20.283745 c 0,2.18953 -1.00644,4.65594 -3.21131,5.254872 l -8.75812,2.379061 c -0.94494,0.256685 -1.75163,0.583875 -2.62744,0.583875 -0.87581,0 -1.68249,-0.327188 -2.62744,-0.583875 l -8.75812,-2.379061 c -2.20487,-0.598932 -3.21131,-3.065342 -3.21131,-5.254872 V 8.8981867 C -167.07794,14.444997 -176.5659,27.582179 -177.00381,43.05486 l 9.48797,4.670998 c 1.31371,0.583875 2.18953,1.897593 2.3355,3.35728 l 3.40494,7.856492 c 16.7864,-2.919374 28.92204,-2.924922 46.29231,0.140421 l 3.87325,-7.850944 c 0.14597,-1.459687 1.02179,-2.773405 2.3355,-3.35728 l 8.02828,-3.941155 c 0,-15.910587 -9.48796,-29.339706 -23.20902,-35.0324853 z"
       id="path46"
       sodipodi:nodetypes="cssssssscccccccccc" /></g></svg>
