<?xml version="1.0" encoding="UTF-8" standalone="no"?>
<svg
   xmlns:dc="http://purl.org/dc/elements/1.1/"
   xmlns:cc="http://creativecommons.org/ns#"
   xmlns:rdf="http://www.w3.org/1999/02/22-rdf-syntax-ns#"
   xmlns:svg="http://www.w3.org/2000/svg"
   xmlns="http://www.w3.org/2000/svg"
   xmlns:sodipodi="http://sodipodi.sourceforge.net/DTD/sodipodi-0.dtd"
   xmlns:inkscape="http://www.inkscape.org/namespaces/inkscape"
   inkscape:export-ydpi="854.82001"
   inkscape:export-xdpi="854.82001"
   inkscape:export-filename="/Users/benjaminaskren/Development/Xamarin/AssetBuilder/Assets/Icon1024.png"
   inkscape:version="0.92.3 (2405546, 2018-03-11)"
   height="115"
   width="115"
   sodipodi:docname="FlatIcon.svg"
   id="svg52"
   xml:space="preserve"
   viewBox="0 0 115 115"
   y="0px"
   x="0px"
   version="1.1"><metadata
     id="metadata58"><rdf:RDF><cc:Work
         rdf:about=""><dc:format>image/svg+xml</dc:format><dc:type
           rdf:resource="http://purl.org/dc/dcmitype/StillImage" /><dc:title></dc:title></cc:Work></rdf:RDF></metadata><defs
     id="defs56" /><sodipodi:namedview
     inkscape:pagecheckerboard="true"
     inkscape:current-layer="svg52"
     inkscape:window-maximized="1"
     inkscape:window-y="23"
     inkscape:window-x="0"
     inkscape:cy="27.253614"
     inkscape:cx="16.714358"
     inkscape:zoom="6.4060024"
     showgrid="false"
     id="namedview54"
     inkscape:window-height="1922"
     inkscape:window-width="2887"
     inkscape:pageshadow="2"
     inkscape:pageopacity="0"
     guidetolerance="10"
     gridtolerance="10"
     objecttolerance="10"
     borderopacity="1"
     bordercolor="#666666"
     pagecolor="#ffffff" /><style
     id="style10"
     type="text/css">
	.st0{display:none;}
	.st1{display:inline;}
	.st2{fill:none;stroke:#B3B3B3;stroke-width:0.1;stroke-miterlimit:10;}
</style><g
     id="g36"
     class="st0"><g
       id="g34"
       class="st1"><rect
         id="rect12"
         height="60"
         width="60"
         class="st2"
         y="2"
         x="2" /><line
         id="line14"
         y2="62"
         x2="32"
         y1="2"
         x1="32"
         class="st2" /><line
         id="line16"
         y2="32"
         x2="2"
         y1="32"
         x1="62"
         class="st2" /><line
         id="line18"
         y2="62"
         x2="62"
         y1="2"
         x1="2"
         class="st2" /><rect
         id="rect20"
         height="44"
         width="44"
         class="st2"
         y="10"
         x="10" /><line
         id="line22"
         y2="62"
         x2="2"
         y1="2"
         x1="62"
         class="st2" /><line
         id="line24"
         y2="2"
         x2="32"
         y1="32"
         x1="2"
         class="st2" /><line
         id="line26"
         y2="32"
         x2="62"
         y1="2"
         x1="32"
         class="st2" /><line
         id="line28"
         y2="62"
         x2="32"
         y1="32"
         x1="62"
         class="st2" /><line
         id="line30"
         y2="32"
         x2="2"
         y1="62"
         x1="32"
         class="st2" /><circle
         id="circle32"
         r="21"
         cy="32"
         cx="32"
         class="st2" /></g></g><path
     style="fill:#3498db;stroke-width:0.43902001"
     d="M 33.734375 7.5 C 30.699045 7.5 27.727129 9.2289563 26.199219 11.857422 L 2.4335938 53.142578 C 0.92893355 55.777766 0.92893355 59.222234 2.4335938 61.857422 L 26.199219 103.14258 C 27.727129 105.77105 30.699045 107.49389 33.734375 107.5 L 81.265625 107.5 C 84.300955 107.5 87.272871 105.77105 88.800781 103.14258 L 112.56641 61.857422 C 114.07111 59.222234 114.0705 55.777766 112.56641 53.142578 L 88.800781 11.857422 C 87.272871 9.2286492 84.300955 7.5061094 81.265625 7.5 L 33.734375 7.5 z M 51.515625 17.220703 L 63.193359 17.220703 C 66.404669 17.220703 69.03125 17.847283 69.03125 21.058594 L 69.03125 32.685547 C 69.03125 33.707327 68.447561 34.728625 67.425781 35.3125 L 58.667969 37.691406 C 57.723029 37.948091 56.985956 37.948091 56.041016 37.691406 L 47.28125 35.3125 C 46.25947 34.874594 45.675781 33.853296 45.675781 32.685547 L 45.675781 21.058594 C 45.675781 17.847283 48.304315 17.220703 51.515625 17.220703 z M 42.757812 21.298828 L 42.757812 32.685547 C 42.757812 34.875077 43.76388 37.340521 45.96875 37.939453 L 54.726562 40.318359 C 55.671513 40.575046 56.477706 40.902344 57.353516 40.902344 C 58.229326 40.902344 59.037482 40.575044 59.982422 40.318359 L 68.740234 37.939453 C 70.945104 37.340521 71.951172 34.875077 71.951172 32.685547 L 71.951172 21.298828 C 85.672232 26.991607 95.160156 40.421444 95.160156 56.332031 L 87.130859 60.273438 C 85.817149 60.857312 84.942845 62.171172 84.796875 63.630859 L 80.923828 71.480469 C 63.553558 68.415126 51.417259 68.422423 34.630859 71.341797 L 31.226562 63.484375 C 31.080593 62.024688 30.204335 60.710828 28.890625 60.126953 L 19.402344 55.457031 C 19.840254 39.98435 29.328693 26.845638 42.757812 21.298828 z M 18.525391 58.230469 L 27.576172 62.753906 C 28.014072 63.045843 28.306641 63.483969 28.306641 63.921875 L 31.392578 71.9375 L 23.634766 73.410156 C 23.050896 73.556125 22.467711 73.410562 22.175781 72.972656 L 16.482422 66.695312 L 16.482422 59.251953 L 18.525391 58.230469 z M 96.912109 58.667969 L 98.224609 59.251953 L 98.224609 67.132812 L 93.845703 72.972656 C 93.553773 73.410562 92.970589 73.702609 92.386719 73.556641 C 90.635089 73.118735 86.200324 72.356391 84.302734 72.064453 L 87.861328 63.921875 C 87.861328 63.338 88.153887 62.899874 88.591797 62.753906 L 96.912109 58.667969 z M 15.753906 70.052734 L 20.132812 74.869141 C 21.008632 75.890922 22.176 76.330078 23.34375 76.330078 C 23.63568 76.330078 24.073294 76.329563 24.365234 76.183594 C 46.114564 70.928721 68.73917 70.928721 91.65625 76.183594 C 93.26191 76.6215 95.013376 75.891843 96.035156 74.578125 L 99.246094 70.490234 L 100.41406 71.220703 C 100.99794 71.658609 100.99846 72.535266 100.56055 73.119141 L 96.765625 77.789062 C 95.889808 78.810844 94.721923 79.540094 93.408203 79.832031 C 69.469333 85.086904 45.530667 85.086904 21.591797 79.832031 C 20.278077 79.540094 19.110185 78.810845 18.234375 77.789062 L 14.439453 73.119141 C 14.001543 72.535266 14.002068 71.804577 14.585938 71.220703 L 15.753906 70.052734 z "
     id="path106" /></svg>